# xmcd CD database file
#
# Track frame offsets:
#	150
#	15392
#	33242
#	53047
#	62811
#	76666
#	94762
#	114044
#	130136
#	142471
#	154418
#	162440
#
# Disc length: 2351 seconds
#
# Revision: 0
# Processed by: cddbd v1.5.2PL0 Copyright (c) Steve Scherf et al.
# Submitted via: CDex 1.51
#
DISCID=95092d0c
DTITLE=Hamilton de Holanda - Íntimo
DYEAR=2007
DGENRE=Jazz
TTITLE0=Samba do Soho
TTITLE1=Beatriz
TTITLE2=Gratitude
TTITLE3=Luiza
TTITLE4=Chão de estrelas
TTITLE5=Senhorinha
TTITLE6=A César o que é de César
TTITLE7=As rosas não falam
TTITLE8=Passarim
TTITLE9=O bem do mar
TTITLE10=Amor, saudade amor
TTITLE11=Feitiço da Vila
EXTD=YEAR: 2007
EXTT0=
EXTT1=
EXTT2=
EXTT3=
EXTT4=
EXTT5=
EXTT6=
EXTT7=
EXTT8=
EXTT9=
EXTT10=
EXTT11=
PLAYORDER=
